# xmcd
#
# Track frame offsets: 
#        150
#        17281
#        33841
#        56291
#        74576
#        93558
#        112247
#        127894
#        149474
#        165651
#
# Disc length: 2493 seconds
#
# Revision: 0
# Processed by: cddbd v1.5.2PL0 Copyright (c) Steve Scherf et al.
# Submitted via: ExactAudioCopyFreeDBPlugin 1.0
#
DISCID=8309bb0a
DTITLE=Usher - Raymond V Raymond (Deluxe Edition) [CD2]
DYEAR=2010
DGENRE=R&B
TTITLE0=Love 'Em All
TTITLE1=DJ Got Us Fallin' In Love Feat. Pitbull
TTITLE2=Hot Tottie Feat. Jay-Z
TTITLE3=Lay You Down
TTITLE4=Lingerie
TTITLE5=Get In My Car Feat. Bun B
TTITLE6=Somebody To Love (Remix) Feat. Justin Bieber
TTITLE7=Stranger
TTITLE8=Dirty Dancer Feat. Enrique Iglesias
TTITLE9=OMG (Disco Fries Radio Mix) Feat. will.I.am
EXTD=
EXTT0=
EXTT1=
EXTT2=
EXTT3=
EXTT4=
EXTT5=
EXTT6=
EXTT7=
EXTT8=
EXTT9=
PLAYORDER=
